<mxfile host="app.diagrams.net" modified="2024-06-11T21:04:14.543Z" agent="Mozilla/5.0 (Windows NT 10.0; Win64; x64) AppleWebKit/537.36 (KHTML, like Gecko) Chrome/125.0.0.0 Safari/537.36" version="24.5.3" etag="_5eE8C1pM574CemXL17X" type="github">
  <diagram name="PÃ¡gina-1" id="drdCb34tJG41Dbc3Mt65">
    <mxGraphModel>
      <root>
        <mxCell id="0" />
        <mxCell id="1" parent="0" />
      </root>
    </mxGraphModel>
  </diagram>
</mxfile>
